<?xml version="1.0" encoding="UTF-8"?><svg id="b" xmlns="http://www.w3.org/2000/svg" width="833" height="338.28" viewBox="0 0 833 338.28"><g id="c"><g id="d"><g id="e"><g><path id="f" d="M496.52,42.1H171.08c-2.58,0-4.92,1.05-6.62,2.74-1.69,1.69-2.74,4.03-2.74,6.61v222.87c0,2.58,1.05,4.92,2.74,6.61,1.69,1.69,4.03,2.74,6.62,2.74H496.52c2.58,0,4.92-1.05,6.62-2.74,1.69-1.69,2.74-4.03,2.74-6.61V51.45c0-2.58-1.05-4.92-2.74-6.61-1.69-1.69-4.03-2.74-6.62-2.74Z" style="fill:#fff; fill-rule:evenodd;"/><path d="M496.52,285.02H171.08c-2.86,0-5.54-1.11-7.56-3.13-2.02-2.02-3.13-4.7-3.13-7.56V51.45c0-2.86,1.11-5.54,3.13-7.56,2.02-2.02,4.71-3.13,7.56-3.13H496.52c2.86,0,5.54,1.11,7.56,3.13,2.02,2.02,3.13,4.7,3.13,7.56v222.87c0,2.86-1.11,5.54-3.13,7.56-2.02,2.02-4.7,3.13-7.56,3.13ZM171.08,43.44c-2.14,0-4.16,.83-5.67,2.35-1.51,1.51-2.35,3.53-2.35,5.67v222.87c0,2.14,.83,4.15,2.35,5.67,1.52,1.51,3.53,2.35,5.67,2.35H496.52c2.14,0,4.16-.83,5.67-2.35,1.52-1.51,2.35-3.53,2.35-5.67V51.45c0-2.14-.83-4.15-2.35-5.67-1.52-1.51-3.53-2.35-5.67-2.35H171.08Z" style="fill:#111;"/></g><path id="g" d="M480.49,62.82H186.78c-1.11,0-2.11,.45-2.83,1.18-.72,.73-1.17,1.73-1.17,2.84V232.89c0,1.11,.45,2.11,1.17,2.84,.73,.73,1.73,1.18,2.83,1.18H480.49c1.11,0,2.11-.45,2.83-1.18,.72-.73,1.17-1.73,1.17-2.84V66.83c0-1.11-.45-2.11-1.17-2.84-.73-.73-1.73-1.18-2.83-1.18Z" style="fill:#4f2e80; fill-rule:evenodd;"/><g><path id="h" d="M358.64,283.68h-49.35l-3.33,43.1h56.02l-3.33-43.1Z" style="fill:#fff; fill-rule:evenodd;"/><path d="M363.42,328.12h-58.9l3.54-45.78h51.83l3.54,45.78Zm-56.02-2.67h53.13l-3.13-40.43h-46.88l-3.13,40.43Z" style="fill:#111;"/></g><g><path id="i" d="M382.25,336.47h-96.56c-.09,0-.18-.04-.24-.1-.06-.06-.1-.15-.1-.24v-4.51c0-1.34,.54-2.55,1.42-3.43,.88-.88,2.09-1.42,3.43-1.42h87.54c1.34,0,2.55,.54,3.43,1.42,.88,.88,1.42,2.09,1.42,3.43v4.51c0,.09-.04,.18-.1,.24-.06,.06-.14,.1-.24,.1Z" style="fill:#fff; fill-rule:evenodd;"/><path d="M382.25,337.81h-96.56c-.45,0-.87-.17-1.18-.49-.32-.32-.49-.74-.49-1.18v-4.51c0-1.65,.64-3.2,1.81-4.37,1.17-1.17,2.72-1.81,4.37-1.81h87.54c1.65,0,3.2,.64,4.37,1.81,1.17,1.17,1.81,2.72,1.81,4.37v4.51c0,.45-.17,.87-.49,1.18-.32,.32-.74,.49-1.18,.49Zm-95.56-2.67h94.56v-3.51c0-.94-.37-1.82-1.03-2.48-.66-.66-1.54-1.03-2.48-1.03h-87.54c-.94,0-1.82,.36-2.48,1.03-.66,.66-1.03,1.54-1.03,2.48v3.51Z" style="fill:#111;"/></g><path d="M333.97,269.65c-4.15,0-7.52-3.37-7.52-7.52s3.37-7.52,7.52-7.52,7.52,3.37,7.52,7.52-3.37,7.52-7.52,7.52Zm0-12.36c-2.67,0-4.84,2.17-4.84,4.84s2.17,4.84,4.84,4.84,4.84-2.17,4.84-4.84-2.17-4.84-4.84-4.84Z" style="fill:#111;"/><g><g><rect id="j" x="122.96" y="206.5" width="66.16" height="129.98" rx="8.02" ry="8.02" style="fill:#fff;"/><path d="M181.1,337.81h-50.12c-5.16,0-9.36-4.2-9.36-9.36v-113.94c0-5.16,4.2-9.36,9.36-9.36h50.12c5.16,0,9.36,4.2,9.36,9.36v113.94c0,5.16-4.2,9.36-9.36,9.36Zm-50.12-129.98c-3.68,0-6.68,3-6.68,6.68v113.94c0,3.68,3,6.68,6.68,6.68h50.12c3.68,0,6.68-3,6.68-6.68v-113.94c0-3.68-3-6.68-6.68-6.68h-50.12Z" style="fill:#111;"/></g><path id="k" d="M189.12,221.2H122.96v96h66.16v-96Z" style="fill:#111; fill-rule:evenodd;"/><path id="l" d="M141.67,212.51h29.07c.74,0,1.34,.6,1.34,1.34h0c0,.74-.6,1.34-1.34,1.34h-29.07c-.74,0-1.34-.6-1.34-1.34h0c0-.74,.6-1.34,1.34-1.34Z" style="fill:#111; fill-rule:evenodd;"/><path id="m" d="M156.17,322.77h0c2.1,0,3.81,1.71,3.81,3.81h0c0,2.1-1.71,3.81-3.81,3.81h0c-2.1,0-3.81-1.71-3.81-3.81h0c0-2.1,1.71-3.81,3.81-3.81Z" style="fill:#111; fill-rule:evenodd;"/><circle id="n" cx="141.67" cy="268.98" r="5.01" style="fill:#ff6e00;"/><g id="o"><path id="p" d="M154.7,260.29h20.72c.74,0,1.34,.6,1.34,1.34h0c0,.74-.6,1.34-1.34,1.34h-20.72c-.74,0-1.34-.6-1.34-1.34h0c0-.74,.6-1.34,1.34-1.34Z" style="fill:#fff; fill-rule:evenodd;"/><path id="q" d="M154.7,267.64h14.03c.74,0,1.34,.6,1.34,1.34h0c0,.74-.6,1.34-1.34,1.34h-14.03c-.74,0-1.34-.6-1.34-1.34h0c0-.74,.6-1.34,1.34-1.34Z" style="fill:#fff; fill-rule:evenodd;"/><path id="r" d="M154.7,274.99h7.35c.74,0,1.34,.6,1.34,1.34h0c0,.74-.6,1.34-1.34,1.34h-7.35c-.74,0-1.34-.6-1.34-1.34h0c0-.74,.6-1.34,1.34-1.34Z" style="fill:#fff; fill-rule:evenodd;"/></g></g><g><circle id="s" cx="96.06" cy="218.36" r="51.29" style="fill:#009691;"/><path d="M96.06,270.98c-29.02,0-52.63-23.61-52.63-52.63s23.61-52.63,52.63-52.63,52.63,23.61,52.63,52.63-23.61,52.63-52.63,52.63Zm0-102.58c-27.54,0-49.95,22.41-49.95,49.95s22.41,49.95,49.95,49.95,49.95-22.41,49.95-49.95-22.41-49.95-49.95-49.95Z" style="fill:#111;"/></g><g><path id="t" d="M648.23,156.38h-228.55c-2.58,0-4.92,1.05-6.61,2.74-1.69,1.69-2.74,4.03-2.74,6.62v147.35c0,2.58,1.05,4.92,2.74,6.61,1.69,1.69,4.03,2.74,6.61,2.74h228.55c2.58,0,4.92-1.05,6.61-2.74,1.69-1.69,2.74-4.03,2.74-6.62V165.73c0-2.58-1.05-4.92-2.74-6.61-1.69-1.69-4.03-2.74-6.61-2.74Z" style="fill:#fff; fill-rule:evenodd;"/><path d="M648.23,323.78h-228.55c-2.85,0-5.54-1.11-7.56-3.13-2.02-2.02-3.13-4.7-3.13-7.56V165.73c0-2.86,1.11-5.54,3.13-7.56,2.02-2.02,4.7-3.13,7.56-3.13h228.55c2.85,0,5.54,1.11,7.56,3.13s3.13,4.7,3.13,7.56v147.35c0,2.86-1.11,5.54-3.13,7.56-2.02,2.02-4.7,3.13-7.56,3.13Zm-228.55-166.07c-2.14,0-4.15,.83-5.67,2.35-1.51,1.51-2.35,3.53-2.35,5.67v147.35c0,2.14,.83,4.15,2.35,5.67,1.51,1.51,3.53,2.35,5.67,2.35h228.55c2.14,0,4.15-.83,5.67-2.35,1.51-1.51,2.35-3.53,2.35-5.67V165.73c0-2.14-.83-4.15-2.35-5.67-1.51-1.51-3.53-2.35-5.67-2.35h-228.55Z" style="fill:#111;"/></g><g><path id="u" d="M674.29,322.44H393.61c-.09,0-.17,.04-.23,.1-.06,.06-.1,.14-.1,.24v6.68c0,1.94,.79,3.69,2.06,4.96,1.27,1.27,3.03,2.06,4.96,2.06h267.3c1.94,0,3.69-.79,4.96-2.06,1.27-1.27,2.06-3.02,2.06-4.96v-6.68c0-.09-.04-.18-.1-.24-.06-.06-.14-.1-.23-.1Z" style="fill:#fff; fill-rule:evenodd;"/><path d="M667.6,337.81H400.3c-2.23,0-4.33-.87-5.91-2.45-1.58-1.58-2.45-3.68-2.45-5.91v-6.68c0-.45,.17-.87,.49-1.18,.32-.32,.73-.49,1.18-.49h280.68c.45,0,.86,.17,1.18,.49,.31,.31,.49,.73,.49,1.18v6.68c0,2.23-.87,4.33-2.45,5.91-1.58,1.58-3.68,2.45-5.91,2.45Zm-272.99-14.03v5.68c0,1.52,.59,2.94,1.66,4.02,1.07,1.07,2.5,1.66,4.02,1.66h267.3c1.52,0,2.95-.59,4.02-1.66,1.07-1.07,1.66-2.5,1.66-4.02v-5.68H394.61Z" style="fill:#111;"/></g><g><path id="v" d="M552.42,322.59h-37.42c.65,1.72,1.75,3.21,3.14,4.35,1.78,1.46,4.06,2.33,6.54,2.33h18.05c2.48,0,4.76-.87,6.54-2.33,1.4-1.14,2.49-2.64,3.14-4.35Z" style="fill:#fff; fill-rule:evenodd;"/><path d="M542.74,330.61h-18.05c-2.69,0-5.31-.93-7.39-2.63-1.59-1.3-2.82-3-3.55-4.91l-.69-1.81h41.29s-.69,1.81-.69,1.81c-.73,1.91-1.95,3.61-3.55,4.91-2.08,1.7-4.7,2.63-7.39,2.63Zm-25.55-6.68c.5,.74,1.1,1.41,1.8,1.98,1.6,1.31,3.63,2.03,5.7,2.03h18.05c2.07,0,4.1-.72,5.7-2.03,.7-.57,1.31-1.24,1.8-1.98h-33.05Z" style="fill:#111;"/></g><rect id="w" x="420.01" y="170.74" width="227.68" height="137.61" rx="2.67" ry="2.67" style="fill:#009691;"/><g id="x"><circle id="y" cx="326.45" cy="65.82" r="1.67" style="fill:#293347;"/><g><path id="z" d="M382.59,19.71H233.56V165.06c0,1.85,.75,3.52,1.96,4.73,1.21,1.21,2.88,1.96,4.73,1.96h135.65c1.85,0,3.52-.75,4.73-1.96,1.21-1.21,1.96-2.88,1.96-4.72V19.71Z" style="fill:#111; fill-rule:evenodd;"/><path d="M375.9,173.08H240.25c-2.14,0-4.16-.83-5.67-2.35-1.51-1.51-2.35-3.53-2.35-5.67V18.38h151.7V165.06c0,2.14-.83,4.16-2.35,5.67-1.51,1.51-3.53,2.35-5.67,2.35ZM234.9,21.05V165.06c0,1.43,.56,2.77,1.57,3.78,1.01,1.01,2.35,1.57,3.78,1.57h135.65c1.43,0,2.77-.56,3.78-1.57,1.01-1.01,1.57-2.35,1.57-3.78V21.05H234.9Z" style="fill:#111;"/></g><g><path id="aa" d="M375.9,1.34H240.25c-1.85,0-3.52,.75-4.73,1.96-1.21,1.21-1.96,2.88-1.96,4.73v9.02h149.02V8.02c0-1.85-.75-3.52-1.96-4.73-1.21-1.21-2.88-1.96-4.73-1.96Z" style="fill:#fff; fill-rule:evenodd;"/><path d="M383.92,18.38H232.22V8.02c0-2.14,.83-4.16,2.35-5.67,1.52-1.51,3.53-2.35,5.67-2.35h135.65c2.14,0,4.16,.83,5.67,2.35s2.35,3.53,2.35,5.67v10.36Zm-149.02-2.67h146.35v-7.68c0-1.43-.56-2.77-1.57-3.78-1.01-1.01-2.35-1.57-3.78-1.57H240.25c-1.43,0-2.77,.56-3.78,1.57-1.01,1.01-1.57,2.35-1.57,3.78v7.68Z" style="fill:#111;"/></g><circle id="ab" cx="245.26" cy="9.36" r="3.01" style="fill:#111;"/><circle id="ac" cx="255.28" cy="9.36" r="3.01" style="fill:#4f2e80;"/><circle id="ad" cx="265.3" cy="9.36" r="3.01" style="fill:#009691;"/><g id="ae"><path id="af" d="M250.94,114.61h3.34c.74,0,1.34,.6,1.34,1.34h0c0,.74-.6,1.34-1.34,1.34h-3.34c-.74,0-1.34-.6-1.34-1.34h0c0-.74,.6-1.34,1.34-1.34Z" style="fill:#535b6b; fill-rule:evenodd; isolation:isolate; opacity:.54;"/><path id="ag" d="M250.94,47.78h3.34c.74,0,1.34,.6,1.34,1.34h0c0,.74-.6,1.34-1.34,1.34h-3.34c-.74,0-1.34-.6-1.34-1.34h0c0-.74,.6-1.34,1.34-1.34Z" style="fill:#535b6b; fill-rule:evenodd; isolation:isolate; opacity:.54;"/><path id="ah" d="M260.96,47.78h9.02c.74,0,1.34,.6,1.34,1.34s-.6,1.34-1.34,1.34h-9.02c-.74,0-1.34-.6-1.34-1.34s.6-1.34,1.34-1.34Z" style="fill:#ff6e00; fill-rule:evenodd;"/><path id="ai" d="M276,47.78h9.02c.74,0,1.34,.6,1.34,1.34s-.6,1.34-1.34,1.34h-9.02c-.74,0-1.34-.6-1.34-1.34s.6-1.34,1.34-1.34Z" style="fill:#009691; fill-rule:evenodd;"/><path id="aj" d="M291.03,47.78h16.71c.74,0,1.34,.6,1.34,1.34s-.6,1.34-1.34,1.34h-16.71c-.74,0-1.34-.6-1.34-1.34s.6-1.34,1.34-1.34Z" style="fill:#4f2e80; fill-rule:evenodd;"/><path id="ak" d="M313.75,47.78h24.73c.74,0,1.34,.6,1.34,1.34s-.6,1.34-1.34,1.34h-24.73c-.74,0-1.34-.6-1.34-1.34s.6-1.34,1.34-1.34Z" style="fill:#4f2e80; fill-rule:evenodd;"/><path id="al" d="M250.94,61.15h3.34c.74,0,1.34,.6,1.34,1.34h0c0,.74-.6,1.34-1.34,1.34h-3.34c-.74,0-1.34-.6-1.34-1.34h0c0-.74,.6-1.34,1.34-1.34Z" style="fill:#535b6b; fill-rule:evenodd; isolation:isolate; opacity:.54;"/><path id="am" d="M250.94,74.51h3.34c.74,0,1.34,.6,1.34,1.34h0c0,.74-.6,1.34-1.34,1.34h-3.34c-.74,0-1.34-.6-1.34-1.34h0c0-.74,.6-1.34,1.34-1.34Z" style="fill:#535b6b; fill-rule:evenodd; isolation:isolate; opacity:.54;"/><path id="an" d="M250.94,87.88h3.34c.74,0,1.34,.6,1.34,1.34h0c0,.74-.6,1.34-1.34,1.34h-3.34c-.74,0-1.34-.6-1.34-1.34h0c0-.74,.6-1.34,1.34-1.34Z" style="fill:#535b6b; fill-rule:evenodd; isolation:isolate; opacity:.54;"/><path id="ao" d="M250.94,101.24h3.34c.74,0,1.34,.6,1.34,1.34h0c0,.74-.6,1.34-1.34,1.34h-3.34c-.74,0-1.34-.6-1.34-1.34h0c0-.74,.6-1.34,1.34-1.34Z" style="fill:#535b6b; fill-rule:evenodd; isolation:isolate; opacity:.54;"/><path id="ap" d="M250.94,127.97h3.34c.74,0,1.34,.6,1.34,1.34h0c0,.74-.6,1.34-1.34,1.34h-3.34c-.74,0-1.34-.6-1.34-1.34h0c0-.74,.6-1.34,1.34-1.34Z" style="fill:#535b6b; fill-rule:evenodd; isolation:isolate; opacity:.54;"/><path id="aq" d="M250.94,141.34h3.34c.74,0,1.34,.6,1.34,1.34h0c0,.74-.6,1.34-1.34,1.34h-3.34c-.74,0-1.34-.6-1.34-1.34h0c0-.74,.6-1.34,1.34-1.34Z" style="fill:#535b6b; fill-rule:evenodd; isolation:isolate; opacity:.54;"/><path id="ar" d="M260.96,61.15h20.72c.74,0,1.34,.6,1.34,1.34h0c0,.74-.6,1.34-1.34,1.34h-20.72c-.74,0-1.34-.6-1.34-1.34h0c0-.74,.6-1.34,1.34-1.34Z" style="fill:#4f2e80; fill-rule:evenodd;"/><path id="as" d="M287.69,61.15h37.42c.74,0,1.34,.6,1.34,1.34h0c0,.74-.6,1.34-1.34,1.34h-37.42c-.74,0-1.34-.6-1.34-1.34h0c0-.74,.6-1.34,1.34-1.34Z" style="fill:#009691; fill-rule:evenodd;"/><path id="at" d="M331.13,61.15h14.03c.74,0,1.34,.6,1.34,1.34h0c0,.74-.6,1.34-1.34,1.34h-14.03c-.74,0-1.34-.6-1.34-1.34h0c0-.74,.6-1.34,1.34-1.34Z" style="fill:#ff6e00; fill-rule:evenodd;"/><path id="au" d="M260.96,74.51h14.03c.74,0,1.34,.6,1.34,1.34h0c0,.74-.6,1.34-1.34,1.34h-14.03c-.74,0-1.34-.6-1.34-1.34h0c0-.74,.6-1.34,1.34-1.34Z" style="fill:#009691; fill-rule:evenodd;"/><path id="av" d="M281.01,74.51h14.03c.74,0,1.34,.6,1.34,1.34h0c0,.74-.6,1.34-1.34,1.34h-14.03c-.74,0-1.34-.6-1.34-1.34h0c0-.74,.6-1.34,1.34-1.34Z" style="fill:#ff6e00; fill-rule:evenodd;"/><path id="aw" d="M301.06,74.51h7.35c.74,0,1.34,.6,1.34,1.34h0c0,.74-.6,1.34-1.34,1.34h-7.35c-.74,0-1.34-.6-1.34-1.34h0c0-.74,.6-1.34,1.34-1.34Z" style="fill:#4f2e80; fill-rule:evenodd;"/><path id="ax" d="M260.96,87.88h30.74c.74,0,1.34,.6,1.34,1.34h0c0,.74-.6,1.34-1.34,1.34h-30.74c-.74,0-1.34-.6-1.34-1.34h0c0-.74,.6-1.34,1.34-1.34Z" style="fill:#4f2e80; fill-rule:evenodd;"/><path id="ay" d="M297.71,87.88h20.72c.74,0,1.34,.6,1.34,1.34h0c0,.74-.6,1.34-1.34,1.34h-20.72c-.74,0-1.34-.6-1.34-1.34h0c0-.74,.6-1.34,1.34-1.34Z" style="fill:#ff6e00; fill-rule:evenodd;"/><path id="az" d="M260.96,101.24h30.74c.74,0,1.34,.6,1.34,1.34h0c0,.74-.6,1.34-1.34,1.34h-30.74c-.74,0-1.34-.6-1.34-1.34h0c0-.74,.6-1.34,1.34-1.34Z" style="fill:#4f2e80; fill-rule:evenodd;"/><path id="ba" d="M297.71,101.24h40.76c.74,0,1.34,.6,1.34,1.34h0c0,.74-.6,1.34-1.34,1.34h-40.76c-.74,0-1.34-.6-1.34-1.34h0c0-.74,.6-1.34,1.34-1.34Z" style="fill:#009691; fill-rule:evenodd;"/><path id="bb" d="M260.96,114.61h20.72c.74,0,1.34,.6,1.34,1.34h0c0,.74-.6,1.34-1.34,1.34h-20.72c-.74,0-1.34-.6-1.34-1.34h0c0-.74,.6-1.34,1.34-1.34Z" style="fill:#ff6e00; fill-rule:evenodd;"/><path id="bc" d="M287.69,114.61h20.72c.74,0,1.34,.6,1.34,1.34h0c0,.74-.6,1.34-1.34,1.34h-20.72c-.74,0-1.34-.6-1.34-1.34h0c0-.74,.6-1.34,1.34-1.34Z" style="fill:#009691; fill-rule:evenodd;"/><path id="bd" d="M314.42,114.61h10.69c.74,0,1.34,.6,1.34,1.34h0c0,.74-.6,1.34-1.34,1.34h-10.69c-.74,0-1.34-.6-1.34-1.34h0c0-.74,.6-1.34,1.34-1.34Z" style="fill:#4f2e80; fill-rule:evenodd;"/><path id="be" d="M260.96,127.97h40.76c.74,0,1.34,.6,1.34,1.34h0c0,.74-.6,1.34-1.34,1.34h-40.76c-.74,0-1.34-.6-1.34-1.34h0c0-.74,.6-1.34,1.34-1.34Z" style="fill:#4f2e80; fill-rule:evenodd;"/><path id="bf" d="M260.96,141.34h17.38c.74,0,1.34,.6,1.34,1.34h0c0,.74-.6,1.34-1.34,1.34h-17.38c-.74,0-1.34-.6-1.34-1.34h0c0-.74,.6-1.34,1.34-1.34Z" style="fill:#009691; fill-rule:evenodd;"/></g></g><g id="bg"><g><path id="bh" d="M715.72,121.96h-183.11V252.27c0,2.58,1.05,4.92,2.74,6.62,1.69,1.69,4.03,2.74,6.62,2.74h164.39c2.59,0,4.92-1.05,6.62-2.74,1.69-1.69,2.74-4.03,2.74-6.62V121.96Z" style="fill:#fff; fill-rule:evenodd;"/><path d="M706.36,262.96h-164.39c-2.86,0-5.54-1.11-7.56-3.13-2.02-2.02-3.13-4.71-3.13-7.56V120.62h185.78V252.27c0,2.86-1.11,5.54-3.13,7.56-2.02,2.02-4.71,3.13-7.56,3.13Zm-172.41-139.67V252.27c0,2.14,.83,4.16,2.35,5.67s3.53,2.35,5.67,2.35h164.39c2.14,0,4.16-.83,5.67-2.35,1.52-1.51,2.35-3.53,2.35-5.67V123.3h-180.43Z" style="fill:#111;"/></g><g><path id="bi" d="M706.36,105.25h-164.39c-2.59,0-4.92,1.05-6.62,2.74-1.69,1.69-2.74,4.03-2.74,6.61v10.03h183.11v-10.03c0-2.58-1.05-4.92-2.74-6.61-1.69-1.69-4.03-2.74-6.62-2.74Z" style="fill:#111; fill-rule:evenodd;"/><path d="M717.05,125.97h-185.78v-11.36c0-2.86,1.11-5.54,3.13-7.56,2.02-2.02,4.71-3.13,7.56-3.13h164.39c2.86,0,5.54,1.11,7.56,3.13,2.02,2.02,3.13,4.7,3.13,7.56v11.36Zm-183.11-2.67h180.43v-8.69c0-2.14-.83-4.15-2.35-5.67-1.52-1.51-3.53-2.35-5.67-2.35h-164.39c-2.14,0-4.16,.83-5.67,2.35-1.52,1.51-2.35,3.53-2.35,5.67v8.69Z" style="fill:#111;"/></g><circle id="bj" cx="546.98" cy="114.94" r="3.01" style="fill:#fff;"/><circle id="bk" cx="557" cy="114.94" r="3.01" style="fill:#4f2e80;"/><circle id="bl" cx="567.03" cy="114.94" r="3.01" style="fill:#009691;"/><g id="bm"><path d="M645.89,235.13l-.42-.12c-18.64-5.38-32.16-23.56-32.16-43.21s13.51-37.38,32.13-43.2l.44-.14,.44,.13c18.93,5.63,32.15,23.4,32.15,43.21,0,9.29-3.23,18.77-9.09,26.69-5.9,7.98-14.09,13.85-23.06,16.52l-.42,.13Zm0-83.53c-17.17,5.59-29.58,22.42-29.58,40.19s12.41,35.03,29.56,40.2c16.89-5.24,29.58-22.44,29.58-40.2s-12.13-34.8-29.56-40.19Z" style="fill:#4f2e80;"/><g><path id="bn" d="M650.23,146.02h-8.02v8.02h8.02v-8.02Z" style="fill:#fffffe; fill-rule:evenodd;"/><path d="M651.56,155.37h-10.69v-10.69h10.69v10.69Zm-8.02-2.67h5.35v-5.35h-5.35v5.35Z" style="fill:#ff6e00;"/></g><g><path id="bo" d="M649.89,229.55h-8.02v8.02h8.02v-8.02Z" style="fill:#fffffe; fill-rule:evenodd;"/><path d="M651.23,238.91h-10.69v-10.69h10.69v10.69Zm-8.02-2.67h5.35v-5.35h-5.35v5.35Z" style="fill:#ff6e00;"/></g><g><path id="bp" d="M618.82,188.12h-8.02v8.02h8.02v-8.02Z" style="fill:#fffffe; fill-rule:evenodd;"/><path d="M620.16,197.47h-10.69v-10.69h10.69v10.69Zm-8.02-2.67h5.35v-5.35h-5.35v5.35Z" style="fill:#ff6e00;"/></g><rect x="675.29" y="160.39" width="2.67" height="27.73" style="fill:#111;"/><rect x="675.29" y="195.47" width="2.67" height="27.73" style="fill:#111;"/><circle id="bq" cx="676.62" cy="160.72" r="4.01" style="fill:#111;"/><circle id="br" cx="676.62" cy="224.2" r="4.01" style="fill:#111;"/><g><path id="bs" d="M680.63,188.12h-8.02v8.02h8.02v-8.02Z" style="fill:#fffffe; fill-rule:evenodd;"/><path d="M681.97,197.47h-10.69v-10.69h10.69v10.69Zm-8.02-2.67h5.35v-5.35h-5.35v5.35Z" style="fill:#ff6e00;"/></g><path d="M646.22,217.31c-.83,0-1.5-.67-1.5-1.5v-47.76c0-.83,.67-1.5,1.5-1.5s1.5,.67,1.5,1.5v47.76c0,.83-.67,1.5-1.5,1.5Z" style="fill:#4f2e80;"/><path d="M650.23,178.12h-8.35c-.83,0-1.5-.67-1.5-1.5s.67-1.5,1.5-1.5h8.35c.83,0,1.5,.67,1.5,1.5s-.67,1.5-1.5,1.5Z" style="fill:#4f2e80;"/><path d="M650.23,186.3h-8.35c-.83,0-1.5-.67-1.5-1.5s.67-1.5,1.5-1.5h8.35c.83,0,1.5,.67,1.5,1.5s-.67,1.5-1.5,1.5Z" style="fill:#4f2e80;"/><path d="M650.23,194.48h-8.35c-.83,0-1.5-.67-1.5-1.5s.67-1.5,1.5-1.5h8.35c.83,0,1.5,.67,1.5,1.5s-.67,1.5-1.5,1.5Z" style="fill:#4f2e80;"/><path d="M650.23,202.66h-8.35c-.83,0-1.5-.67-1.5-1.5s.67-1.5,1.5-1.5h8.35c.83,0,1.5,.67,1.5,1.5s-.67,1.5-1.5,1.5Z" style="fill:#4f2e80;"/><path d="M650.23,210.84h-8.35c-.83,0-1.5-.67-1.5-1.5s.67-1.5,1.5-1.5h8.35c.83,0,1.5,.67,1.5,1.5s-.67,1.5-1.5,1.5Z" style="fill:#4f2e80;"/></g><g id="bt"><rect id="bu" x="564.02" y="150.03" width="23.39" height="23.39" rx="4.01" ry="4.01" style="fill:#111;"/><rect id="bv" x="564.02" y="180.1" width="23.39" height="23.39" rx="4.01" ry="4.01" style="fill:#009691;"/><rect id="bw" x="564.02" y="210.17" width="23.39" height="23.39" rx="4.01" ry="4.01" style="fill:#4f2e80;"/></g></g><g id="bx"><g><path d="M811.62,284.35c-11.07,0-20.05,8.98-20.05,20.05s8.98,20.05,20.05,20.05,20.05-8.98,20.05-20.05-8.98-20.05-20.05-20.05Zm0,31.74c-6.46,0-11.69-5.24-11.69-11.69s5.24-11.69,11.69-11.69,11.69,5.24,11.69,11.69-5.24,11.69-11.69,11.69Z" style="fill:#fff; fill-rule:evenodd;"/><path d="M811.62,325.78c-11.79,0-21.38-9.59-21.38-21.38s9.59-21.38,21.38-21.38,21.38,9.59,21.38,21.38-9.59,21.38-21.38,21.38Zm0-40.1c-10.32,0-18.71,8.39-18.71,18.71s8.39,18.71,18.71,18.71,18.71-8.39,18.71-18.71-8.39-18.71-18.71-18.71Zm0,31.74c-7.19,0-13.03-5.85-13.03-13.03s5.85-13.03,13.03-13.03,13.03,5.85,13.03,13.03-5.85,13.03-13.03,13.03Zm0-23.39c-5.71,0-10.36,4.65-10.36,10.36s4.65,10.36,10.36,10.36,10.36-4.65,10.36-10.36-4.65-10.36-10.36-10.36Z" style="fill:#111;"/></g><g><path id="by" d="M812.26,272.32h-56.78c-.37,0-.7,.15-.95,.39-.24,.24-.39,.58-.39,.95v56.13c0,1.85,.75,3.52,1.96,4.73,1.21,1.21,2.88,1.96,4.73,1.96h46.09c1.85,0,3.52-.75,4.73-1.96,1.21-1.21,1.96-2.88,1.96-4.73v-56.13c0-.37-.15-.7-.39-.95-.24-.24-.58-.39-.95-.39Z" style="fill:#fff; fill-rule:evenodd;"/><path d="M806.91,337.81h-46.09c-2.14,0-4.16-.83-5.67-2.35-1.51-1.51-2.35-3.53-2.35-5.67v-56.13c0-.71,.28-1.39,.78-1.89,.5-.5,1.18-.78,1.89-.78h56.78c.71,0,1.39,.28,1.89,.78,.51,.5,.78,1.18,.78,1.89v56.13c0,2.14-.83,4.16-2.35,5.67-1.51,1.51-3.53,2.35-5.67,2.35Zm-51.43-64.15v56.13c0,1.43,.56,2.77,1.57,3.78,1.01,1.01,2.35,1.57,3.78,1.57h46.09c1.43,0,2.77-.56,3.78-1.57s1.57-2.35,1.57-3.78v-56.13h-56.78Z" style="fill:#111;"/></g></g><g id="bz"><g><path id="ca" d="M716.05,318.16c-5.43,0-10.34,2.2-13.89,5.75-3.25,3.25-5.36,7.62-5.71,12.49h39.2c-.34-4.87-2.46-9.24-5.71-12.49-3.56-3.56-8.47-5.75-13.89-5.75Z" style="fill:#fff; fill-rule:evenodd;"/><path d="M737.16,337.81h-42.21l.11-1.5c.36-5.04,2.53-9.8,6.11-13.38,3.98-3.98,9.26-6.17,14.89-6.17s10.91,2.19,14.89,6.17c3.59,3.59,5.76,8.34,6.11,13.38l.11,1.5Zm-39.13-2.81h36.06c-.59-3.81-2.38-7.34-5.13-10.09-3.45-3.45-8.03-5.34-12.9-5.34s-9.45,1.9-12.9,5.34c-2.75,2.75-4.54,6.29-5.13,10.09Z" style="fill:#111;"/></g><path id="cb" d="M716.05,318.43h0c.74,0,1.34,.6,1.34,1.34v1.67c0,.74-.6,1.34-1.34,1.34h0c-.74,0-1.34-.6-1.34-1.34v-1.67c0-.74,.6-1.34,1.34-1.34Z" style="fill:#111; fill-rule:evenodd;"/></g><g id="cc"><g><path id="cd" d="M101.91,297.05H21.05c-5.44,0-10.37,2.21-13.94,5.77s-5.77,8.5-5.77,13.94,2.21,10.37,5.77,13.94,8.5,5.77,13.94,5.77H101.91c.55,0,1.05-.22,1.42-.59s.59-.86,.59-1.42v-3.1c0-.7-.27-1.34-.72-1.82s-1.07-.79-1.77-.84c-4.63-.33-8.06-1.5-10.37-3.41-2.43-2.01-3.69-4.84-3.69-8.53s1.26-6.55,3.72-8.61c2.32-1.95,5.79-3.18,10.47-3.6,.67-.08,1.26-.4,1.68-.88,.42-.47,.68-1.1,.68-1.78v-2.84c0-.55-.22-1.05-.59-1.42-.36-.36-.86-.59-1.42-.59Z" style="fill:#4f2e80; fill-rule:evenodd;"/><path d="M101.91,337.81H21.05c-5.62,0-10.91-2.19-14.89-6.17-3.98-3.98-6.17-9.26-6.17-14.88s2.19-10.91,6.17-14.89c3.98-3.98,9.26-6.17,14.89-6.17H101.91c.89,0,1.73,.35,2.36,.98,.63,.63,.98,1.47,.98,2.36v2.84c0,.99-.36,1.93-1.02,2.67-.65,.73-1.55,1.2-2.52,1.31h-.04c-4.31,.39-7.58,1.5-9.73,3.3-2.18,1.83-3.24,4.31-3.24,7.59s1.05,5.71,3.2,7.5c2.13,1.76,5.36,2.81,9.61,3.11,1.01,.07,1.96,.52,2.65,1.27,.69,.75,1.08,1.72,1.08,2.73v3.1c0,.89-.35,1.73-.98,2.36-.63,.63-1.47,.98-2.36,.98Zm-80.86-39.43c-4.91,0-9.52,1.91-12.99,5.38-3.47,3.47-5.38,8.09-5.38,12.99s1.91,9.52,5.38,12.99c3.47,3.47,8.09,5.38,13,5.38H101.91c.24,0,.4-.12,.47-.2s.2-.23,.2-.47v-3.1c0-.34-.13-.66-.36-.91-.23-.25-.54-.4-.88-.42-4.82-.34-8.56-1.59-11.13-3.71-2.77-2.29-4.17-5.51-4.17-9.56s1.41-7.3,4.2-9.63c2.57-2.15,6.33-3.47,11.18-3.91,.32-.04,.61-.2,.82-.44,.22-.25,.34-.56,.34-.89v-2.84c0-.24-.12-.4-.2-.47s-.23-.2-.47-.2H21.05Z" style="fill:#111;"/></g><g><path id="ce" d="M97.83,304.73H20.72c-3.32,0-6.33,1.35-8.51,3.52-2.18,2.18-3.52,5.18-3.52,8.51s1.35,6.33,3.52,8.51c2.18,2.18,5.18,3.52,8.51,3.52,36.39,0,62.26,.07,77.62,.21h0c-2.69-.73-5.77-1.75-7.96-4-1.76-1.81-3-4.38-3-8.23s1.26-6.47,3.05-8.27c2.05-2.07,4.86-3.07,7.41-3.76Z" style="fill:#fff; fill-rule:evenodd;"/><path d="M98.32,330.33c-15.28-.14-41.39-.21-77.61-.21-3.57,0-6.93-1.39-9.45-3.91-2.52-2.52-3.91-5.88-3.91-9.45s1.39-6.93,3.91-9.45c2.52-2.52,5.88-3.91,9.45-3.91H97.83l.35,2.63c-2.17,.58-4.91,1.5-6.8,3.41-1.79,1.81-2.66,4.2-2.66,7.33s.86,5.49,2.62,7.3c1.93,1.98,4.67,2.92,7.35,3.65l-.36,2.63Zm-77.61-24.27c-2.86,0-5.54,1.11-7.56,3.13-2.02,2.02-3.13,4.7-3.13,7.56s1.11,5.54,3.13,7.56c2.02,2.02,4.7,3.13,7.56,3.13,31.27,0,55.01,.05,70.75,.16-.73-.48-1.42-1.04-2.05-1.68-2.24-2.3-3.38-5.38-3.38-9.17s1.16-6.92,3.44-9.21c.56-.56,1.16-1.05,1.79-1.48H20.72Z" style="fill:#111;"/></g><path id="cf" d="M19.35,319.77H86.9c.72,0,1.31,.6,1.31,1.34s-.59,1.34-1.31,1.34H19.35c-.72,0-1.31-.6-1.31-1.34s.59-1.34,1.31-1.34Z" style="fill:#111; fill-rule:evenodd;"/><path id="cg" d="M19.35,311.08H86.9c.72,0,1.31,.6,1.31,1.34s-.59,1.34-1.31,1.34H19.35c-.72,0-1.31-.6-1.31-1.34s.59-1.34,1.31-1.34Z" style="fill:#111; fill-rule:evenodd;"/></g><g id="ch"><path id="ci" d="M83.59,230.34c-1.64-1.46-3.28-2.92-4.92-4.37-2.61-2.32-5.22-4.65-7.83-6.97-.6-.53-1.2-1.06-1.79-1.59v2.1c1.64-1.46,3.28-2.92,4.92-4.37,2.61-2.32,5.22-4.65,7.83-6.97,.6-.53,1.2-1.06,1.79-1.59,.58-.52,.58-1.58,0-2.1-.62-.57-1.49-.56-2.12,0-1.64,1.46-3.28,2.92-4.92,4.37-2.61,2.32-5.22,4.65-7.83,6.97-.6,.53-1.2,1.06-1.79,1.59-.58,.51-.58,1.59,0,2.1,1.64,1.46,3.28,2.92,4.92,4.37,2.61,2.32,5.22,4.65,7.83,6.97,.6,.53,1.2,1.06,1.79,1.59,.58,.52,1.55,.62,2.12,0,.52-.57,.62-1.55,0-2.1h0Z" style="fill:#111;"/><path id="cj" d="M108.56,206.58c1.64,1.46,3.28,2.92,4.92,4.37,2.61,2.32,5.22,4.65,7.83,6.97,.6,.53,1.2,1.06,1.79,1.59v-2.1c-1.64,1.46-3.28,2.92-4.92,4.37-2.61,2.32-5.22,4.65-7.83,6.97-.6,.53-1.2,1.06-1.79,1.59-.58,.52-.58,1.58,0,2.1,.62,.57,1.49,.56,2.12,0,1.64-1.46,3.28-2.92,4.92-4.37,2.61-2.32,5.22-4.65,7.83-6.97,.6-.53,1.2-1.06,1.79-1.59,.58-.51,.58-1.59,0-2.1-1.64-1.46-3.28-2.92-4.92-4.37-2.61-2.32-5.22-4.65-7.83-6.97-.6-.53-1.2-1.06-1.79-1.59-.58-.52-1.55-.62-2.12,0-.52,.57-.62,1.55,0,2.1h0Z" style="fill:#111;"/><path id="ck" d="M90.73,239.1c.45-1.34,.89-2.68,1.34-4.02,1.07-3.22,2.14-6.43,3.21-9.65,1.29-3.88,2.58-7.76,3.87-11.64,1.12-3.35,2.23-6.71,3.35-10.06,.53-1.63,1.13-3.25,1.62-4.9,0-.02,.01-.04,.02-.07,.25-.74-.28-1.66-1.05-1.83-.82-.19-1.58,.25-1.84,1.04-.45,1.34-.89,2.68-1.34,4.02-1.07,3.22-2.14,6.43-3.21,9.65-1.29,3.88-2.58,7.76-3.87,11.64-1.12,3.35-2.23,6.71-3.35,10.06-.53,1.62-1.13,3.24-1.62,4.89,0,.02-.01,.04-.02,.07-.25,.74,.28,1.66,1.05,1.83,.82,.19,1.58-.25,1.84-1.03h0Z" style="fill:#111;"/></g></g><g><polygon points="263.29 323.67 263.29 335.14 273.15 335.14 273.15 330.91 263.29 323.67" style="fill:#009691;"/><polygon points="238.73 329.48 226.03 330.48 224.36 335.16 250.09 335.14 249.09 326.14 238.73 329.48" style="fill:#009691;"/><polygon points="209.33 330.15 206.32 330.48 204.65 335.16 210.66 335.14 209.33 330.15" style="fill:#009691;"/><polygon points="251.43 322.47 238.73 329.48 226.37 330.15 220.02 322.13 214.34 321.8 209.33 330.15 204.65 330.15 204.65 320.13 199.64 313.78 215.01 313.78 216.68 320.13 236.39 312.11 236.39 322.13 251.43 322.47" style="fill:#a6a6a6;"/><path d="M237.35,331.64h-11.11c-.74,0-1.34-.6-1.34-1.34s.6-1.34,1.34-1.34h11.11c2.06,0,10.2-4.81,15.32-8.23,.61-.41,1.44-.24,1.85,.37,.41,.61,.24,1.44-.37,1.85-2.17,1.45-13.19,8.67-16.8,8.67Z" style="fill:#111;"/><path d="M273.15,336.47h-11.14c-.74,0-1.34-.6-1.34-1.34s.6-1.34,1.34-1.34h9.8v-2.81c-.26-.63-2.17-2.45-5.61-4.54-3.27-1.98-6.39-3.26-7.96-3.26h-21.84c-.74,0-1.34-.6-1.34-1.34v-8.17c-2.19,.46-4.87,1.9-7.67,3.4-3.51,1.88-7.14,3.83-10.58,4.29-.41,.05-.82-.08-1.11-.37-.29-.29-.44-.7-.39-1.1l.25-2.17c-.04-1.95-1.64-3.53-3.6-3.53h-9.8c-.03,2.01,.13,3.03,3.03,4.69,.42,.24,.67,.68,.67,1.16v8.92h3.47c.74,0,1.34,.6,1.34,1.34s-.6,1.34-1.34,1.34h-4.8c-.74,0-1.34-.6-1.34-1.34v-9.51c-3.79-2.4-3.74-4.67-3.69-7.06,0-.28,.01-.57,.01-.88,0-.74,.6-1.34,1.34-1.34h11.12c3.46,0,6.27,2.82,6.27,6.28,0,.05,0,.1,0,.15l-.05,.42c2.52-.71,5.27-2.19,7.95-3.63,3.71-1.99,7.22-3.87,10.27-3.87,.74,0,1.34,.6,1.34,1.34v8.32h20.5c3.22,0,8.27,2.98,9.74,3.9,2.97,1.84,6.5,4.46,6.5,6.5v4.22c0,.74-.6,1.34-1.34,1.34Z" style="fill:#111;"/><rect x="237.06" y="313.11" width="4.01" height="8.35" style="fill:#009691;"/><path d="M251.36,336.47h-28.56c-.74,0-1.34-.6-1.34-1.34s.6-1.34,1.34-1.34h28.56c.74,0,1.34,.6,1.34,1.34s-.6,1.34-1.34,1.34Z" style="fill:#111;"/><path d="M212.67,336.47h-8.06c-.74,0-1.34-.6-1.34-1.34v-4.83c0-.74,.6-1.34,1.34-1.34s1.34,.6,1.34,1.34v3.49h6.72c.74,0,1.34,.6,1.34,1.34s-.6,1.34-1.34,1.34Z" style="fill:#111;"/><path d="M241.54,321.47h-2.67v-7.93h-2.73v-2.67h4.07c.74,0,1.34,.6,1.34,1.34v9.27Z" style="fill:#111;"/><g><circle cx="256.73" cy="329.4" r="7.54" style="fill:#111;"/><path d="M256.73,338.28c-4.9,0-8.88-3.98-8.88-8.88s3.98-8.88,8.88-8.88,8.88,3.98,8.88,8.88-3.98,8.88-8.88,8.88Zm0-15.09c-3.42,0-6.21,2.79-6.21,6.21s2.79,6.21,6.21,6.21,6.21-2.79,6.21-6.21-2.79-6.21-6.21-6.21Z" style="fill:#111;"/></g><circle cx="256.73" cy="329.4" r="3.32" style="fill:#a6a6a6;"/><g><circle cx="217.64" cy="329.4" r="7.54" style="fill:#111;"/><path d="M217.64,338.28c-4.9,0-8.88-3.98-8.88-8.88s3.98-8.88,8.88-8.88,8.88,3.98,8.88,8.88-3.98,8.88-8.88,8.88Zm0-15.09c-3.42,0-6.21,2.79-6.21,6.21s2.79,6.21,6.21,6.21,6.21-2.79,6.21-6.21-2.79-6.21-6.21-6.21Z" style="fill:#111;"/></g><circle cx="217.64" cy="329.4" r="3.32" style="fill:#a6a6a6;"/></g><path d="M784.05,313c-1.52-3.7-4.49-5.33-8.05-6.05-1.48-.3-3.02-.3-4.53-.38-1.12-.06-2.24-.01-3.43-.01,.03-.23,.05-.41,.08-.59,.33-1.97-.17-3.69-1.59-5.12-1.41-1.43-3.19-2.23-5.04-2.92-.1-.04-.21-.07-.31-.19,.09-.01,.18-.03,.27-.03,4.51,0,9.02,0,13.52,0,.46,0,.7,.09,.82,.59,.56,2.16,1.76,3.06,3.98,3.07,.63,0,1.26-.02,1.88,0,.32,.01,.5-.09,.58-.4,.19-.75,.4-1.49,.61-2.28,.1,.44,.19,.86,.28,1.23h1.83c.08-.36,.17-.77,.25-1.17l.08-.02c.03,.16,.06,.32,.1,.48,.09,.43,.16,.86,.28,1.28,.25,.87,.26,.87,1.16,.87,.59,0,1.18,0,1.77,0,1.84-.02,3.14-1.02,3.63-2.79q.24-.86,1.11-.86c4.43,0,8.86,0,13.3,0,.09,0,.18,0,.26,0,0,.03,.01,.06,.02,.1-.27,.11-.54,.21-.82,.32-1.38,.52-2.69,1.16-3.84,2.09-1.92,1.54-2.74,3.49-2.27,5.94,.02,.11,.02,.22,.03,.41-.27,0-.51,0-.75,0-2.2,.08-4.41,.07-6.6,.27-1.77,.16-3.43,.82-4.96,1.76-1.68,1.04-2.96,2.42-3.67,4.4Z"/></g></g></svg>