<?xml version="1.0" encoding="UTF-8"?><svg id="d" xmlns="http://www.w3.org/2000/svg" width="50" height="50" xmlns:xlink="http://www.w3.org/1999/xlink" viewBox="0 0 50 50"><defs><clipPath id="e"><path d="M21.36,23.32h7.99c.66,0,1.16,.62,1,1.26-.56,2.23-2.58,3.89-4.99,3.89s-4.43-1.65-4.99-3.89c-.16-.64,.34-1.26,1-1.26Z" style="fill:none;"/></clipPath></defs><rect width="50" height="50" style="fill:#4e5e89;"/><path d="M38.35,31.78l-13.16,8.43-13.52-8.43v-8.66c0-9.44,5.97-17.09,13.34-17.09h0c7.37,0,13.34,7.65,13.34,17.09v8.66Z" style="fill:#773f1f;"/><path d="M25.24,29.87h0c6.46,0,11.7,5.24,11.7,11.7v8.43H13.54v-8.43c0-6.46,5.24-11.7,11.7-11.7Z" style="fill:#3a3a3a;"/><circle cx="33.43" cy="22.62" r="3.51" style="fill:#e3a180;"/><circle cx="17.05" cy="22.62" r="3.51" style="fill:#e3a180;"/><path d="M25.91,32.91h-1.34c-4.93,0-8.92-4-8.92-8.92v-5.16s10.06,.27,11.23-5.58c3.04,3.98,7.96,3.48,7.96,4.76v5.97c0,4.93-4,8.92-8.92,8.92Z" style="fill:#f2b18d;"/><g><path d="M34.84,18.02s-5.95-1.25-9.48,.27c0,1.46,0,2.02,0,2.5,1.37-.19,4.83,2.77,7.15,1.83s2.32-3.22,2.32-3.22v-1.38Z" style="fill:#3a3a3a;"/><path d="M15.65,18.02s6.24-1.25,9.77,.27c0,1.46,0,2.02,0,2.5-1.37-.19-4.83,2.77-7.15,1.83s-2.62-3.22-2.62-3.22v-1.38Z" style="fill:#3a3a3a;"/></g><g><g><path d="M31.68,20.98h-3.28c0-.9,.73-1.64,1.64-1.64s1.64,.73,1.64,1.64Z" style="fill:#fff;"/><path d="M26.53,22.15h-2.34c0-.65,.52-1.17,1.17-1.17s1.17,.52,1.17,1.17Z" style="fill:#e3a180;"/><path d="M22.32,20.98h-3.28c0-.9,.73-1.64,1.64-1.64s1.64,.73,1.64,1.64Z" style="fill:#fff;"/></g><g><path d="M21.36,23.32h7.99c.66,0,1.16,.62,1,1.26-.56,2.23-2.58,3.89-4.99,3.89s-4.43-1.65-4.99-3.89c-.16-.64,.34-1.26,1-1.26Z" style="fill:#a30433;"/><g style="clip-path:url(#e);"><path d="M18.8,25.66h8.89v2.11c0,.9-.73,1.64-1.64,1.64h-3.51c-2.07,0-3.74-1.68-3.74-3.74h0Z" transform="translate(46.5 55.06) rotate(-180)" style="fill:#d12156;"/><path d="M22.08,22.38h7.02v.7c0,.9-.73,1.64-1.64,1.64h-3.75c-.9,0-1.64-.73-1.64-1.64v-.7h0Z" style="fill:#fff;"/></g></g></g><circle cx="35.77" cy="25.43" r=".7" style="fill:#3a2114;"/><circle cx="14.71" cy="25.43" r=".7" style="fill:#3a2114;"/><path d="M15.41,13.75c0-3.45,5.56-6.8,9.59-6.8,1.37,0,2.89,.38,4.3,.99,2.76,1.2,5.11,3.31,5.11,5.31" style="fill:none; stroke:#3a3a3a; stroke-linecap:round; stroke-linejoin:bevel;"/><path d="M32.37,3.11c2.04,.15,1.66,8.25,1.66,8.25l-5.18-3.74s2.83-4.26,3.52-4.5Z" style="fill:#3a3a3a;"/><path d="M17.02,3.11c-2.04,.15-1.38,8.71-1.38,8.71l5.34-4.35s-3.28-4.11-3.97-4.35Z" style="fill:#3a3a3a;"/></svg>