<?xml version="1.0" encoding="UTF-8"?><svg id="d" xmlns="http://www.w3.org/2000/svg" width="50" height="50" xmlns:xlink="http://www.w3.org/1999/xlink" viewBox="0 0 50 50"><defs><clipPath id="e"><path d="M21.11,23.32h7.99c.66,0,1.16,.62,1,1.26-.56,2.23-2.58,3.89-4.99,3.89s-4.43-1.65-4.99-3.89c-.16-.64,.34-1.26,1-1.26Z" style="fill:none;"/></clipPath></defs><rect width="50" height="50" style="fill:#bf6500;"/><path d="M24.94,29.87h0c6.46,0,11.7,5.24,11.7,11.7v8.43H13.23v-8.43c0-6.46,5.24-11.7,11.7-11.7Z" style="fill:#a4a4a4;"/><path d="M43.11,50s-6.18-25.34-18.57-17.79c6.72,2.77,10.8,9.51,11.1,17.79h7.47Z" style="fill:#4e5e89;"/><path d="M6.46,50s6.18-25.34,18.57-17.79c-6.72,2.77-10.8,9.51-11.1,17.79H6.46Z" style="fill:#4e5e89;"/><path d="M25.54,32.91h-1.34c-4.93,0-8.92-4-8.92-8.92l-.11-4.42,1.72-1.87v-2.38c0-.75,.61-1.36,1.36-1.36h13.15c.75,0,1.36,.61,1.36,1.36v2.38l1.59,1.87,.13,4.42c0,4.93-4,8.92-8.92,8.92Z" style="fill:#d88157;"/><g><path d="M26.28,22.15h-2.34c0-.65,.52-1.17,1.17-1.17s1.17,.52,1.17,1.17Z" style="fill:#c96f41;"/><g><path d="M21.11,23.32h7.99c.66,0,1.16,.62,1,1.26-.56,2.23-2.58,3.89-4.99,3.89s-4.43-1.65-4.99-3.89c-.16-.64,.34-1.26,1-1.26Z" style="fill:#a30433;"/><g style="clip-path:url(#e);"><path d="M18.56,25.66h8.89v2.11c0,.9-.73,1.64-1.64,1.64h-3.51c-2.07,0-3.74-1.68-3.74-3.74h0Z" transform="translate(46.01 55.06) rotate(180)" style="fill:#d12156;"/><path d="M21.84,22.38h7.02v.7c0,.9-.73,1.64-1.64,1.64h-3.75c-.9,0-1.64-.73-1.64-1.64v-.7h0Z" style="fill:#fff;"/></g></g></g><path d="M26.01,34.79h-1.34c-1.84,0-4.02-2.43-5.44-3.39-2.38-1.6-3.95-4.32-3.95-7.41,0,0,1.24,6.82,9.66,6.82s9.53-6.82,9.53-6.82c0,2.93-1.41,5.53-3.6,7.16-1.49,1.11-2.86,3.64-4.86,3.64Z" style="fill:#3a2114;"/><path d="M28.73,23.32c.72,0,1.3,.58,1.3,1.3l-.94,4.12c0,.62-.51,1.13-1.13,1.13h-5.7c-.62,0-1.13-.51-1.13-1.13l-.94-4.12c0-.72,.58-1.3,1.3-1.3h7.23m0-.94h-7.23c-1.24,0-2.24,1-2.24,2.24v4.59c0,1.14,.92,1.6,2.06,1.6h7.57c1.14,0,2.06-.46,2.06-1.6v-4.59c0-1.24-1-2.24-2.24-2.24h0Z" style="fill:#3a2114;"/><g><path d="M24.84,8.54s2.95,0,5.24,1c1.4-2.34,2.29-8.01,2.29-8.01,0,0,7.36,22.47-.56,28.88,0-4.68,2.25-9.7-6.98-8.26V8.54Z" style="fill:#4e5e89;"/><path d="M24.92,8.54s-2.95,0-5.24,1c-1.4-2.34-2.29-8.01-2.29-8.01,0,0-7.36,22.47,.56,28.88,0-4.68-2.25-9.7,6.98-8.26,0-5.98,0-13.61,0-13.61Z" style="fill:#4e5e89;"/></g><path d="M31.43,20.98h-3.28c0-.9,.73-1.64,1.64-1.64s1.64,.73,1.64,1.64Z" style="fill:#a4a4a4;"/><path d="M22.07,20.98h-3.28c0-.9,.73-1.64,1.64-1.64s1.64,.73,1.64,1.64Z" style="fill:#a4a4a4;"/></svg>