<?xml version="1.0" encoding="utf-8"?>
<!-- Generator: Adobe Illustrator 27.0.0, SVG Export Plug-In . SVG Version: 6.00 Build 0)  -->
<svg version="1.0" xmlns="http://www.w3.org/2000/svg" xmlns:xlink="http://www.w3.org/1999/xlink" x="0px" y="0px"
	 viewBox="0 0 34 34" enable-background="new 0 0 34 34" xml:space="preserve">
<g id="Layer_3">
</g>
<g id="Layer_2">
</g>
<g id="Layer_1">
</g>
<g id="Layer_5">
</g>
<g id="icons">
	<path fill="none" stroke="currentColor" stroke-linecap="round" stroke-linejoin="round" stroke-miterlimit="10" d="M33.3,11.4
		c-2.8,1.5-5.6,2.7-4.7,6.7c-0.6,0-1.2-0.1-1.8-0.1c-1.7,0.1-3.3,0.1-5,0.4c-2.4,0.5-4.2,1.8-5,4.2c-0.1,0-0.2,0-0.2-0.1
		c-1.2-3.2-3.9-4.2-7-4.5c-1.6-0.1-3.1,0-4.8,0c0.6-1.5,0.4-3-0.7-4.1c-1.1-1-2.3-1.8-3.5-2.6c0,0,0.2,0,0.4,0c3.1,0,6.2,0,9.2,0
		c0.7,0,1,0.1,1.3,0.8c0.4,1.4,2.1,2.3,3.5,1.8c0.4-0.2,0.6-0.9,0.9-1.4c0.2,0.1,0.5,0.4,0.8,0.4c0.3,0,0.6-0.3,0.9-0.4
		c0.4,1.6,0.4,1.6,2.2,1.4c1.1-0.1,1.8-0.7,2.1-1.7c0.1-0.7,0.5-0.8,1.2-0.8c3.1,0,6.2,0,9.3,0C32.7,11.3,32.9,11.4,33.3,11.4z"/>
</g>
<g id="sport">
</g>
<g id="batman">
</g>
</svg>
