<svg width="25" height="26" viewBox="0 0 25 26" fill="currentColor" xmlns="http://www.w3.org/2000/svg">
<g clip-path="url(#clip0_775_1511)">
<path d="M6.45898 22.0425H1.92383V7.43799H6.45898V22.0425ZM4.18896 5.4458C2.73877 5.4458 1.5625 4.24463 1.5625 2.79443C1.5625 2.09785 1.83922 1.4298 2.33177 0.937242C2.82433 0.444685 3.49238 0.167969 4.18896 0.167969C4.88555 0.167969 5.5536 0.444685 6.04616 0.937242C6.53871 1.4298 6.81543 2.09785 6.81543 2.79443C6.81543 4.24463 5.63867 5.4458 4.18896 5.4458ZM23.4326 22.0425H18.9072V14.9331C18.9072 13.2388 18.873 11.0659 16.5493 11.0659C14.1914 11.0659 13.8301 12.9067 13.8301 14.811V22.0425H9.29981V7.43799H13.6494V9.43018H13.7129C14.3184 8.28271 15.7974 7.07178 18.0039 7.07178C22.5938 7.07178 23.4375 10.0942 23.4375 14.02V22.0425H23.4326Z" fill="currentColor"/>
</g>
<defs>
<clipPath id="clip0_775_1511">
<rect width="25" height="25" fill="currentColor" transform="translate(0 0.166992)"/>
</clipPath>
</defs>
</svg>
