<svg xmlns="http://www.w3.org/2000/svg" xmlns:xlink="http://www.w3.org/2000/svg" style="display: none;">

  <symbol id="icon-basketball" viewBox="0 0 34 34">
    <circle fill="none" stroke="currentColor" stroke-miterlimit="10" cx="17" cy="17" r="16"/>
		<line fill="none" stroke="currentColor" stroke-miterlimit="10" x1="17" y1="1.4" x2="17" y2="32.7"/>
		<path fill="none" stroke="currentColor" stroke-miterlimit="10" d="M8.2,3.8c4.3,1.1,10,4.1,1.6,12.6C2.5,23.9,7.1,28.2,7.9,30"/>
		<path fill="none" stroke="currentColor" stroke-miterlimit="10" d="M25.8,3.8c-4.3,1.1-10,4.1-1.6,12.6c7.3,7.4,2.7,11.8,1.9,13.5"/>
		<path fill="none" stroke="currentColor" stroke-miterlimit="10" d="M1.2,17.7c0,0,3.3-11.1,15.8-11.1s15.8,11.1,15.8,11.1"/>
  </symbol>
  
  <symbol id="icon-computer" viewBox="0 0 34 34">
    <path fill="currentColor" d="M31.9,25.6C32,25.6,32,25.6,31.9,25.6c0.1,1.5-1,2.6-2.4,2.6h-25c-1.4,0-2.5-1.1-2.5-2.5
			c0,0,0-0.1,0.1-0.1H31.9 M31.9,24.6H2.1c-0.6,0-1.1,0.5-1.1,1.1c0,1.9,1.6,3.5,3.5,3.5h25c1.9,0,3.5-1.6,3.5-3.5
			C33,25.1,32.5,24.6,31.9,24.6L31.9,24.6z"/>
		<path fill="none" stroke="currentColor" stroke-linecap="round" stroke-linejoin="round" stroke-miterlimit="10" d="M20.7,25.5V26
			c0,0.2-0.5,0.4-1.1,0.4h-5.2c-0.6,0-1.1-0.2-1.1-0.4v-0.4"/>
		<g>
			<path fill="none" stroke="currentColor" stroke-linecap="round" stroke-linejoin="round" stroke-miterlimit="10" d="M30.7,24.6V7.4
				c0-1.4-1.1-2.6-2.6-2.6h-1"/>
			<path fill="none" stroke="currentColor" stroke-linecap="round" stroke-linejoin="round" stroke-miterlimit="10" d="M3.3,24.6V7.4
				c0-1.4,1.1-2.6,2.6-2.6h1h16.6"/>
		</g>
		<path fill="none" stroke="currentColor" stroke-linecap="round" stroke-linejoin="round" stroke-miterlimit="10" d="M16.5,6.7h10.8
			c0.7,0,1.2,0.6,1.2,1.2v13.5c0,0.7-0.5,1.2-1.2,1.2H6.7c-0.7,0-1.2-0.6-1.2-1.2V8c0-0.7,0.5-1.2,1.2-1.2h5.8"/>
		<polyline fill="none" stroke="currentColor" stroke-linecap="round" stroke-linejoin="round" stroke-miterlimit="10" points="
			14.1,11.7 11.4,15.2 14.1,18.2"/>
		<polyline fill="none" stroke="currentColor" stroke-linecap="round" stroke-linejoin="round" stroke-miterlimit="10" points="
			19.8,11.7 22.5,15.2 19.8,18.2"/>
		
			<line fill="none" stroke="currentColor" stroke-linecap="round" stroke-linejoin="round" stroke-miterlimit="10" x1="17.5" y1="11.7" x2="15.7" y2="18.2"/>
  </symbol>

  <symbol id="icon-diy" viewBox="0 0 34 34">
    <path fill="currentColor" d="M2.8,11.3c0.1,0,0.2,0,0.3,0.1l2.7,2.7c0.1,0.1,0.1,0.2,0.1,0.3c0,0.1,0,0.2-0.1,0.3l-0.4,0.4
			c-0.1,0.1-0.2,0.1-0.3,0.1s-0.2,0-0.3-0.1l-2.7-2.7c-0.2-0.2-0.2-0.4,0-0.6l0.4-0.4C2.6,11.3,2.7,11.3,2.8,11.3 M2.8,10.3
			c-0.4,0-0.7,0.1-1,0.4l-0.4,0.4c-0.6,0.6-0.6,1.5,0,2l2.7,2.7c0.3,0.3,0.6,0.4,1,0.4c0.4,0,0.7-0.1,1-0.4l0.4-0.4
			c0.6-0.6,0.6-1.5,0-2l-2.7-2.7C3.5,10.4,3.1,10.3,2.8,10.3L2.8,10.3z"/>
		<path fill="currentColor" d="M12.2,11.2l19.5,17.4c0,0,0,0.1,0,0.1c0,0,0,0.1,0,0.1l-2.3,2.3c0,0-0.1,0-0.1,0s-0.1,0-0.1,0l-18-18.9
			L12.2,11.2 M12.1,9.9l-2.4,2.4l18.7,19.6c0.2,0.2,0.5,0.3,0.8,0.3s0.6-0.1,0.8-0.3l2.3-2.3c0.4-0.4,0.4-1.2,0-1.6L12.1,9.9
			L12.1,9.9z"/>
		<path fill="currentColor" d="M13.5,2.7c0.4,0,0.8,0.1,1.2,0.2c-0.5,0.3-1.1,0.7-1.7,1.2c-1.4,1.4-1,2.8-0.7,3.6c0,0.2,0.1,0.4,0.1,0.5
			L8.5,12c0,0-0.1,0-0.1,0s-0.1,0-0.1,0L5.2,8.9c-0.1-0.1-0.1-0.2,0-0.2L9,4.8C9.2,4.6,11.2,2.7,13.5,2.7 M13.5,1.7
			c-2.6,0-4.8,2.1-5.1,2.4L4.5,8C4,8.4,4,9.2,4.5,9.6l3.1,3.1c0.2,0.2,0.5,0.3,0.8,0.3S9,13,9.2,12.8l3.8-3.8
			C14,8,11.9,6.5,13.6,4.8c1.4-1.4,2.8-1.5,3.3-1.5c0.1,0,0.2,0,0.2,0C15.9,2.1,14.6,1.7,13.5,1.7L13.5,1.7z"/>
		
			<line fill="none" stroke="currentColor" stroke-linecap="round" stroke-linejoin="round" stroke-miterlimit="10" x1="4.1" y1="11" x2="4.9" y2="10.2"/>
		
			<line fill="none" stroke="currentColor" stroke-linecap="round" stroke-linejoin="round" stroke-miterlimit="10" x1="6.5" y1="13.4" x2="7.3" y2="12.6"/>
		
			<line fill="none" stroke="currentColor" stroke-linecap="round" stroke-linejoin="round" stroke-miterlimit="10" x1="19.6" y1="21.4" x2="21.4" y2="19.6"/>
		
			<line fill="none" stroke="currentColor" stroke-linecap="round" stroke-linejoin="round" stroke-miterlimit="10" x1="21.3" y1="23" x2="23" y2="21.2"/>
		
			<line fill="none" stroke="currentColor" stroke-linecap="round" stroke-linejoin="round" stroke-miterlimit="10" x1="18.5" y1="15.1" x2="22.8" y2="10.8"/>
		
			<line fill="none" stroke="currentColor" stroke-linecap="round" stroke-linejoin="round" stroke-miterlimit="10" x1="11" y1="22.7" x2="15.3" y2="18.3"/>
		<path fill="currentColor" d="M6.1,25.7l1.7,0.5l0.5,1.7L7,29.2l-1.7-0.5L4.8,27L6.1,25.7 M5.8,24.6l-2.1,2.1l0.8,2.9l2.9,0.8l2.1-2.1
			l-0.8-2.9L5.8,24.6L5.8,24.6z"/>
		<path fill="none" stroke="currentColor" stroke-linecap="round" stroke-linejoin="round" stroke-miterlimit="10" d="M12.5,17.8
			l-4.4,4.4c-1.9-0.6-4-0.1-5.5,1.4c-2.1,2.1-2.1,5.6,0,7.8s5.6,2.1,7.8,0c1.5-1.5,1.9-3.6,1.4-5.5l4.4-4.4"/>
		<path fill="none" stroke="currentColor" stroke-linecap="round" stroke-linejoin="round" stroke-miterlimit="10" d="M17.8,12.6l4.4-4.4
			c-0.6-1.9-0.1-4,1.4-5.5C25,1.2,27.1,0.7,29,1.3c-1.3,1.3-3.8,3.8-3.8,3.8l-0.2,1.8l1.8,1.8l2.3-0.1c0,0,1.9-1.7,3.6-3.5
			c0.6,1.9,0,3.8-1.5,5.3c-1.5,1.5-3.6,1.9-5.5,1.4l-4.4,4.4"/>
  </symbol>

  <symbol id="icon-football" viewBox="0 0 34 34">
    <path fill="currentColor" d="M18.5,3.5C26,3.5,32,9.6,32,17c0,7.4-6,13.5-13.5,13.5c-3.1,0-5.4-0.9-6.6-2.7c-2.7-3.7-0.6-10.2-0.6-10.2
			l0.2-0.5l-0.3-0.4c-0.1-0.2-2.7-3.6-4.8-5.5C8.7,6.5,13.3,3.5,18.5,3.5 M18.5,2.5c-6,0-11.1,3.6-13.3,8.8c2,1.7,5.2,5.9,5.2,5.9
			s-4.7,14.2,8.2,14.2C26.5,31.5,33,25,33,17S26.5,2.5,18.5,2.5L18.5,2.5z"/>
		<path fill="currentColor" d="M20.1,19.8c1,0,1.9,0.8,1.9,1.9s-0.8,1.9-1.9,1.9s-1.9-0.8-1.9-1.9S19.1,19.8,20.1,19.8 M20.1,18.8
			c-1.6,0-2.9,1.3-2.9,2.9s1.3,2.9,2.9,2.9s2.9-1.3,2.9-2.9S21.7,18.8,20.1,18.8L20.1,18.8z"/>
		<path fill="none" stroke="currentColor" stroke-linecap="round" stroke-miterlimit="10" d="M20.1,21.7H1v9.7h7.1c0,0,5.4,0,5.4-8.9"/>
		<line fill="none" stroke="currentColor" stroke-linecap="round" stroke-miterlimit="10" x1="14" y1="14.1" x2="8.2" y2="8.3"/>
		<line fill="none" stroke="currentColor" stroke-miterlimit="10" x1="10.3" y1="26.1" x2="1.1" y2="26.1"/>
  </symbol>

  <symbol id="icon-golf" viewBox="0 0 34 34">
    <path fill="none" stroke="currentColor" stroke-linecap="round" stroke-linejoin="round" stroke-miterlimit="10" d="M9.3,26.9
			c0,0,0-23.4,0-24.6c4.9-4.1,9.1,4.5,14.4,0.4c0,3,0,7.3,0,9.3c-4.9,4.4-9.9-4.5-14.4-0.2"/>
		<path fill="currentColor" d="M9.3,26.3c0.8,0,1.2,0.3,1.3,0.4c0,0.1-0.5,0.5-1.3,0.5S8,26.8,8,26.7C8,26.6,8.5,26.3,9.3,26.3 M9.3,25.3
			C8,25.3,7,25.9,7,26.7s1,1.4,2.3,1.4c1.3,0,2.3-0.6,2.3-1.4S10.5,25.3,9.3,25.3L9.3,25.3z"/>
		<path fill="currentColor" d="M23.1,27.4c0.4,0,0.7,0.3,0.7,0.7s-0.3,0.7-0.7,0.7c-0.4,0-0.7-0.3-0.7-0.7S22.7,27.4,23.1,27.4
			 M23.1,26.4c-0.9,0-1.7,0.8-1.7,1.7s0.8,1.7,1.7,1.7c0.9,0,1.7-0.8,1.7-1.7S24,26.4,23.1,26.4L23.1,26.4z"/>
		<path fill="currentColor" d="M20.9,21.3c3.6,0,5.5,0.4,6.3,0.7c-0.1,0-0.1,0-0.2,0.1c-0.9,0.3-2.4,0.8-2.4,2.5c0,1.9,2.1,2.7,4.1,3.5
			c1.4,0.5,3.1,1.2,3.3,2c-0.8,0.7-5.7,1.9-13.4,1.9c-9.7,0-16.5-2-16.5-4.8C2,23.6,11.8,21.3,20.9,21.3 M20.9,20.3
			c-8.2,0-19.9,2-19.9,6.8c0,4.2,9.1,5.8,17.5,5.8c7.5,0,14.5-1.2,14.5-2.8c0-2.9-7.4-3.1-7.4-5.6c0-1.8,3.1-1.3,3.1-2.6
			C28.7,20.8,25.3,20.3,20.9,20.3L20.9,20.3z"/>
  </symbol>

  <symbol id="icon-movies" viewBox="0 0 34 34">
    <line fill="none" stroke="currentColor" stroke-linecap="round" stroke-linejoin="round" stroke-miterlimit="10" x1="1" y1="32.7" x2="33" y2="32.7"/>
		<polyline fill="none" stroke="currentColor" stroke-linejoin="round" stroke-miterlimit="10" points="13.5,18.6 12.8,32.7 4.7,32.7 
			4,18.6"/>
		<path fill="none" stroke="currentColor" stroke-linecap="round" stroke-linejoin="round" stroke-miterlimit="10" d="M13.3,16.3h-9
			c-0.2,0-0.4,0.1-0.5,0.3l-0.5,1.6c-0.1,0.3,0.1,0.6,0.5,0.6h10c0.3,0,0.6-0.3,0.5-0.6l-0.5-1.6C13.7,16.4,13.5,16.3,13.3,16.3z"/>
		<polyline fill="none" stroke="currentColor" stroke-linecap="round" stroke-linejoin="round" stroke-miterlimit="10" points="5.8,11.1 
			8.1,12.2 8.7,16.3"/>
		<path fill="none" stroke="currentColor" stroke-linecap="round" stroke-linejoin="round" stroke-miterlimit="10" d="M28.8,30.5
			c1.5-1.4,2.6-3.3,2.8-5.5c0-0.4-0.3-0.8-0.7-0.8H15.8c-0.4,0-0.8,0.4-0.7,0.8c0.4,4.2,3.9,7.5,8.3,7.6c0,0,0.1,0,0.1,0l2-0.3"/>
		<path fill="none" stroke="currentColor" stroke-linecap="round" stroke-linejoin="round" stroke-miterlimit="10" d="M23.6,24.1h7.9v-2
			c0,0-0.4-1.1-1.8-0.8c-0.4-1.3-2.3-1.7-2.9-0.6c-0.4-0.4-1.1-0.8-1.1-0.8"/>
		<path fill="none" stroke="currentColor" stroke-linecap="round" stroke-linejoin="round" stroke-miterlimit="10" d="M24.1,24.1h-8.8v-2
			c0,0,0.4-1.1,1.8-0.8c0.4-1.3,2.3-1.7,2.9-0.6c0.4-0.4,1.1-0.8,1.1-0.8"/>
		<path fill="none" stroke="currentColor" stroke-linecap="round" stroke-linejoin="round" stroke-miterlimit="10" d="M22.2,18.4
			c0-1.3,2.1-1.8,2.3-0.1c1.1,0.1,2,1.2,0.4,2.2c-0.1,1.2-2.4,1.3-2.7,0.3C21,20.9,20.4,18.6,22.2,18.4z"/>
		<path fill="none" stroke="currentColor" stroke-linecap="round" stroke-linejoin="round" stroke-miterlimit="10" d="M25.2,29.6
			c0-1.3,2.1-1.8,2.3-0.1c1.1,0.1,2,1.2,0.4,2.2c-0.1,1.2-2.4,1.3-2.7,0.3C24,32,23.3,29.7,25.2,29.6z"/>
		<path fill="none" stroke="currentColor" stroke-linecap="round" stroke-linejoin="round" stroke-miterlimit="10" d="M27.4,14.3
			c0-1.3,2.1-1.8,2.3-0.1c1.1,0.1,2,1.2,0.4,2.2c-0.1,1.2-2.4,1.3-2.7,0.3C26.2,16.8,25.5,14.4,27.4,14.3z"/>
		<path fill="none" stroke="currentColor" stroke-linecap="round" stroke-linejoin="round" stroke-miterlimit="10" d="M29.5,20.8h2.8
			c0.4,0,0.7-0.3,0.7-0.7V2c0-0.4-0.3-0.7-0.7-0.7h-5.5"/>
		<path fill="none" stroke="currentColor" stroke-linecap="round" stroke-linejoin="round" stroke-miterlimit="10" d="M4.1,20.8H1.7
			c-0.4,0-0.7-0.3-0.7-0.7V2c0-0.4,0.3-0.7,0.7-0.7h20.4"/>
		<line fill="none" stroke="currentColor" stroke-linejoin="round" stroke-miterlimit="10" x1="13.2" y1="20.8" x2="17.1" y2="20.8"/>
		
			<circle fill="none" stroke="currentColor" stroke-linecap="round" stroke-linejoin="round" stroke-miterlimit="10" cx="16.9" cy="10" r="5.2"/>
		<path fill="none" stroke="currentColor" stroke-linecap="round" stroke-linejoin="round" stroke-miterlimit="10" d="M15.9,8.9v2.5
			c0,0.2,0.2,0.3,0.4,0.2l2.3-1.3c0.2-0.1,0.2-0.3,0-0.4l-2.3-1.2C16.1,8.6,15.9,8.7,15.9,8.9z"/>
  </symbol>

  <symbol id="icon-sneakers" viewBox="0 0 34 34">
    <path fill="none" stroke="currentColor" stroke-linecap="round" stroke-linejoin="round" stroke-miterlimit="10" d="M0.8,25.4
			c0.1,0.4,0.4,0.8,0.8,0.8c1.4,0.2,4.9,0.5,11.8,0.5c9.4,0,10.3,0,10.3,0s6,0.5,9.3-2.6c1.2-1,0-2.1,0-2.1s0-2.4-3.5-2.2
			c-3.5,0.3-12.3-3.9-13-5.1c-0.6-1.2-2.1-7.1-3-7.5C12.6,6.9,8.9,8.7,7.6,9c-1.3,0.3-4,0.1-4.8,0.8s-1,3-1.4,6
			C0.7,17.4,0.2,21.8,0.8,25.4z"/>
		<path fill="none" stroke="currentColor" stroke-linejoin="round" stroke-miterlimit="10" d="M1.9,12.9c2.1-1.2,8.6-3.6,9.7-4
			c0.9-0.3,1.8-0.2,2.2,0.7c0.1,0.2,0,0.5-0.2,0.6c-1,0.4-1.1,1.2,0.2,1.4c0.1,0,0.3,0.1,0.3,0.3c0,0.2,0.1,0.4-0.1,0.4
			c-1.4,0.7-6.5,2.3-6.3,4.2"/>
		<path fill="none" stroke="currentColor" stroke-linecap="round" stroke-linejoin="round" stroke-miterlimit="10" d="M0.6,22.5
			C7.8,23.4,24.5,26,33,22"/>
		<path fill="none" stroke="currentColor" stroke-linecap="round" stroke-linejoin="round" stroke-miterlimit="10" d="M12.5,13.1
			c0,0.8-0.4,3,1.9,2.9s3,1.7,3.6,1.9c0.6,0.3,6.4,2.9,6.4,2.9l0.4-1.7c0,0-1.2,4.2,1,2.9c2.1-1.2,1.9-0.9,2.7-0.9
			c0.8,0,2.3-0.8,2.6-1"/>
		<path fill="none" stroke="currentColor" stroke-linecap="round" stroke-linejoin="round" stroke-miterlimit="10" d="M24.3,20.8
			c-0.4,0.9-1.2,2.2-1.2,3.3"/>
		<path fill="none" stroke="currentColor" stroke-linecap="round" stroke-linejoin="round" stroke-miterlimit="10" d="M2,15.3
			c1.2,0.4,5.4,2.8,10.5-0.3"/>
		<path fill="none" stroke="currentColor" stroke-linecap="round" stroke-linejoin="round" stroke-miterlimit="10" d="M1.3,17.1
			c4,1.4,6.2,1.6,7.7,6.3"/>
		<path fill="currentColor" d="M1.4,16.2c4.2,1.4,9.5,2.9,11.1,3.3c1.6,0.4,2.4-0.5,1.7-2.2c2.4,1,2.8,2.6,2.3,3.5
			C16,21.7,14,21.4,12.4,21S1,17,1,17L1.4,16.2z"/>
		
			<line fill="none" stroke="currentColor" stroke-linecap="round" stroke-linejoin="round" stroke-miterlimit="10" x1="14" y1="14.3" x2="15.6" y2="12.9"/>
		
			<line fill="none" stroke="currentColor" stroke-linecap="round" stroke-linejoin="round" stroke-miterlimit="10" x1="16.5" y1="14.8" x2="15.7" y2="15.9"/>
		
			<line fill="none" stroke="currentColor" stroke-linecap="round" stroke-linejoin="round" stroke-miterlimit="10" x1="18.6" y1="16.3" x2="17.6" y2="17.3"/>
		<path fill="none" stroke="currentColor" stroke-linecap="round" stroke-linejoin="round" stroke-miterlimit="10" d="M21.2,17.8L20,19
			c0.3,1.6,0.1,2.9-0.8,5.1"/>
		
			<line fill="none" stroke="currentColor" stroke-linecap="round" stroke-linejoin="round" stroke-miterlimit="10" x1="23" y1="18.3" x2="21.9" y2="19.6"/>
  </symbol>

  <symbol id="icon-drums" viewBox="0 0 34 34">
    <circle fill="none" stroke="currentColor" stroke-linecap="round" stroke-linejoin="round" stroke-miterlimit="10" cx="17.1" cy="20.6" r="7.9"/>
		
			<circle fill="none" stroke="currentColor" stroke-linecap="round" stroke-linejoin="round" stroke-miterlimit="10" cx="18.7" cy="21.5" r="2"/>
		
			<line fill="none" stroke="currentColor" stroke-linecap="round" stroke-linejoin="round" stroke-miterlimit="10" x1="22.1" y1="29.2" x2="20.9" y2="27.4"/>
		
			<line fill="none" stroke="currentColor" stroke-linecap="round" stroke-linejoin="round" stroke-miterlimit="10" x1="12" y1="29.2" x2="13.2" y2="27.4"/>
		<g>
			<path fill="none" stroke="currentColor" stroke-linejoin="round" stroke-miterlimit="10" d="M21.2,14.1L21,12.8
				c-0.1-0.4,0.2-0.8,0.6-0.9l6.9-1.1c0.4-0.1,0.8,0.2,0.9,0.6l0.3,2c0.1,0.4-0.2,0.8-0.6,0.9l-6.4,1"/>
			
				<ellipse transform="matrix(0.9559 -0.2936 0.2936 0.9559 -0.5924 8.3538)" fill="none" stroke="currentColor" stroke-linecap="round" stroke-linejoin="round" stroke-miterlimit="10" cx="27.5" cy="6.2" rx="6.1" ry="1.2"/>
			
				<line fill="none" stroke="currentColor" stroke-linecap="round" stroke-linejoin="round" stroke-miterlimit="10" x1="27.5" y1="10.8" x2="27.5" y2="7.4"/>
			
				<line fill="none" stroke="currentColor" stroke-linecap="round" stroke-linejoin="round" stroke-miterlimit="10" x1="27.5" y1="30" x2="27.5" y2="14.7"/>
			
				<line fill="none" stroke="currentColor" stroke-linecap="round" stroke-linejoin="round" stroke-miterlimit="10" x1="23.2" y1="28.4" x2="27.5" y2="25.1"/>
			
				<line fill="none" stroke="currentColor" stroke-linecap="round" stroke-linejoin="round" stroke-miterlimit="10" x1="32.1" y1="28.4" x2="27.8" y2="25.1"/>
		</g>
		<g>
			<path fill="none" stroke="currentColor" stroke-linejoin="round" stroke-miterlimit="10" d="M12.8,14.1l0.2-1.3
				c0.1-0.4-0.2-0.8-0.6-0.9l-6.9-1.1C5,10.7,4.6,11,4.6,11.4l-0.3,2c-0.1,0.4,0.2,0.8,0.6,0.9l6.4,1"/>
			
				<ellipse transform="matrix(0.2936 -0.9559 0.9559 0.2936 -1.312 10.5254)" fill="none" stroke="currentColor" stroke-linecap="round" stroke-linejoin="round" stroke-miterlimit="10" cx="6.5" cy="6.2" rx="1.2" ry="6.1"/>
			
				<line fill="none" stroke="currentColor" stroke-linecap="round" stroke-linejoin="round" stroke-miterlimit="10" x1="6.5" y1="10.8" x2="6.5" y2="7.4"/>
			
				<line fill="none" stroke="currentColor" stroke-linecap="round" stroke-linejoin="round" stroke-miterlimit="10" x1="6.5" y1="30" x2="6.5" y2="14.7"/>
			
				<line fill="none" stroke="currentColor" stroke-linecap="round" stroke-linejoin="round" stroke-miterlimit="10" x1="10.8" y1="28.4" x2="6.5" y2="25.1"/>
			
				<line fill="none" stroke="currentColor" stroke-linecap="round" stroke-linejoin="round" stroke-miterlimit="10" x1="1.9" y1="28.4" x2="6.2" y2="25.1"/>
		</g>
  </symbol>

  <symbol id="icon-bat" viewBox="0 0 34 34">
	<g>
	<path fill="none" stroke="currentColor" stroke-linecap="round" stroke-linejoin="round" stroke-miterlimit="10" d="M33.3,11.4
		c-2.8,1.5-5.6,2.7-4.7,6.7c-0.6,0-1.2-0.1-1.8-0.1c-1.7,0.1-3.3,0.1-5,0.4c-2.4,0.5-4.2,1.8-5,4.2c-0.1,0-0.2,0-0.2-0.1
		c-1.2-3.2-3.9-4.2-7-4.5c-1.6-0.1-3.1,0-4.8,0c0.6-1.5,0.4-3-0.7-4.1c-1.1-1-2.3-1.8-3.5-2.6c0,0,0.2,0,0.4,0c3.1,0,6.2,0,9.2,0
		c0.7,0,1,0.1,1.3,0.8c0.4,1.4,2.1,2.3,3.5,1.8c0.4-0.2,0.6-0.9,0.9-1.4c0.2,0.1,0.5,0.4,0.8,0.4c0.3,0,0.6-0.3,0.9-0.4
		c0.4,1.6,0.4,1.6,2.2,1.4c1.1-0.1,1.8-0.7,2.1-1.7c0.1-0.7,0.5-0.8,1.2-0.8c3.1,0,6.2,0,9.3,0C32.7,11.3,32.9,11.4,33.3,11.4z"/>
	</g>
  </symbol>

  <symbol id="icon-code" viewBox="0 0 34 34">
	<g>
		<polyline fill="none" stroke="currentColor" stroke-linecap="round" stroke-linejoin="round" stroke-miterlimit="10" points="8.7,7.7 
			0.9,17.7 8.7,26.3 		"/>
		<polyline fill="none" stroke="currentColor" stroke-linecap="round" stroke-linejoin="round" stroke-miterlimit="10" points="25.3,7.7 
			33.1,17.7 25.3,26.3 		"/>
		
			<line fill="none" stroke="currentColor" stroke-linecap="round" stroke-linejoin="round" stroke-miterlimit="10" x1="19.7" y1="7.7" x2="14.3" y2="26.3"/>
	</g>
  </symbol>

  <symbol id="icon-caret" viewBox="0 0 34 34">
	<g>
		<polyline points="32 9.06 17.88 24.94 2 9.06" style="fill:none; stroke:currentColor; stroke-linecap:round; stroke-linejoin:round;"/>
	</g>
  </symbol>



</svg>