<svg width="26" height="26" viewBox="0 0 26 26" fill="currentColor" xmlns="http://www.w3.org/2000/svg">
<g clip-path="url(#clip0_775_1509)">
<path d="M10.2609 11.8507C11.6411 11.191 12.3615 10.1927 12.3615 8.63889C12.3615 5.57465 10.0786 4.82812 7.44401 4.82812H0.191406V20.2101H7.648C10.4431 20.2101 13.069 18.8689 13.069 15.7439C13.069 13.8125 12.1532 12.3845 10.2609 11.8507ZM3.57248 7.45399H6.74523C7.96484 7.45399 9.06293 7.79687 9.06293 9.21181C9.06293 10.5182 8.2079 11.0434 7.0013 11.0434H3.57248V7.45399ZM7.18793 17.5972H3.57248V13.3611H7.25738C8.74609 13.3611 9.68793 13.9818 9.68793 15.5573C9.68793 17.1111 8.5638 17.5972 7.18793 17.5972ZM22.7478 7.15017H16.5109V5.63542H22.7478V7.15017ZM25.1914 14.8021C25.1914 11.5078 23.2643 8.76042 19.7704 8.76042C16.3763 8.76042 14.0716 11.3125 14.0716 14.6545C14.0716 18.1224 16.2548 20.5009 19.7704 20.5009C22.431 20.5009 24.1541 19.303 24.9831 16.7552H22.2834C21.9926 17.7057 20.7947 18.2092 19.8659 18.2092C18.0733 18.2092 17.1315 17.1589 17.1315 15.375H25.1654C25.1784 15.1927 25.1914 14.9974 25.1914 14.8021ZM17.1358 13.4479C17.2357 11.9852 18.2079 11.0694 19.6749 11.0694C21.2114 11.0694 21.9839 11.9722 22.1141 13.4479H17.1358Z" fill="currentColor"/>
</g>
<defs>
<clipPath id="clip0_775_1509">
<rect width="25" height="25" fill="currentColor" transform="translate(0.191406 0.166992)"/>
</clipPath>
</defs>
</svg>
