<svg width="25" height="26" viewBox="0 0 25 26" fill="currentColor" xmlns="http://www.w3.org/2000/svg">
<path d="M12.5046 7.05151C9.39917 7.05151 6.89429 9.5564 6.89429 12.6619C6.89429 15.7673 9.39917 18.2722 12.5046 18.2722C15.6101 18.2722 18.115 15.7673 18.115 12.6619C18.115 9.5564 15.6101 7.05151 12.5046 7.05151ZM12.5046 16.3093C10.4978 16.3093 8.85718 14.6736 8.85718 12.6619C8.85718 10.6501 10.4929 9.0144 12.5046 9.0144C14.5164 9.0144 16.1521 10.6501 16.1521 12.6619C16.1521 14.6736 14.5115 16.3093 12.5046 16.3093ZM19.6531 6.82202C19.6531 7.54956 19.0671 8.13062 18.3445 8.13062C17.6169 8.13062 17.0359 7.54468 17.0359 6.82202C17.0359 6.09937 17.6218 5.51343 18.3445 5.51343C19.0671 5.51343 19.6531 6.09937 19.6531 6.82202ZM23.3689 8.15015C23.2859 6.39722 22.8855 4.84448 21.6013 3.56519C20.322 2.28589 18.7693 1.8855 17.0164 1.79761C15.2097 1.69507 9.79468 1.69507 7.98804 1.79761C6.23999 1.88062 4.68726 2.28101 3.40308 3.5603C2.1189 4.8396 1.72339 6.39233 1.6355 8.14526C1.53296 9.9519 1.53296 15.3669 1.6355 17.1736C1.71851 18.9265 2.1189 20.4792 3.40308 21.7585C4.68726 23.0378 6.23511 23.4382 7.98804 23.5261C9.79468 23.6287 15.2097 23.6287 17.0164 23.5261C18.7693 23.4431 20.322 23.0427 21.6013 21.7585C22.8806 20.4792 23.281 18.9265 23.3689 17.1736C23.4714 15.3669 23.4714 9.95679 23.3689 8.15015ZM21.0349 19.1121C20.6541 20.0691 19.9167 20.8064 18.9548 21.1921C17.5144 21.7634 14.0964 21.6316 12.5046 21.6316C10.9128 21.6316 7.48999 21.7585 6.05444 21.1921C5.09741 20.8113 4.36011 20.074 3.97437 19.1121C3.40308 17.6716 3.53491 14.2537 3.53491 12.6619C3.53491 11.0701 3.40796 7.64722 3.97437 6.21167C4.35522 5.25464 5.09253 4.51733 6.05444 4.13159C7.49487 3.5603 10.9128 3.69214 12.5046 3.69214C14.0964 3.69214 17.5193 3.56519 18.9548 4.13159C19.9119 4.51245 20.6492 5.24976 21.0349 6.21167C21.6062 7.6521 21.4744 11.0701 21.4744 12.6619C21.4744 14.2537 21.6062 17.6765 21.0349 19.1121Z" fill="currentColor"/>
</svg>
